# AST/ASF file generated using VICON BodyLanguage
# -----------------------------------------------
:version 1.10
:name VICON
:units
  mass 1.0
  length 0.45
  angle deg
:documentation
   .ast/.asf automatically generated from VICON data using
   VICON BodyBuilder and BodyLanguage model FoxedUp or BRILLIANT.MOD
:root
   order TX TY TZ RX RY RZ
   axis XYZ
   position 0 0 0  
   orientation 0 0 0 
:bonedata
  begin
     id 1 
     name lhipjoint
     direction 0.604623 -0.733026 0.311616 
     length 2.56391 
     axis 0 0 0  XYZ
  end
  begin
     id 2 
     name lfemur
     direction 0.34202 -0.939693 0  
     length 7.75596  
     axis 0 0 20  XYZ
    dof rx ry rz
    limits (-160.0 20.0)
           (-70.0 70.0)
           (-60.0 70.0)
  end
  begin
     id 3 
     name ltibia
     direction 0.34202 -0.939693 0   
     length 7.63697   
     axis 0 0 20   XYZ
    dof rx
    limits (-10.0 170.0)
  end
  begin
     id 4 
     name lfoot
     direction 0.048038 -0.131983 0.990087   
     length 1.94388   
     axis -90 7.62852e-016 20   XYZ
    dof rx rz
    limits (-45.0 90.0)
           (-70.0 20.0)
  end
  begin
     id 5 
     name ltoes
     direction 1.53565e-011 -4.21929e-011 1   
     length 0.984801   
     axis -90 7.62852e-016 20   XYZ
    dof rx
    limits (-90.0 20.0)
  end
  begin
     id 6 
     name rhipjoint
     direction -0.609162 -0.729836 0.31026   
     length 2.57511  
     axis 0 0 0  XYZ 
  end
  begin
     id 7 
     name rfemur
     direction -0.34202 -0.939693 0   
     length 7.60772   
     axis 0 0 -20   XYZ
    dof rx ry rz
    limits (-160.0 20.0)
           (-70.0 70.0)
           (-70.0 60.0)
  end
  begin
     id 8 
     name rtibia
     direction -0.34202 -0.939693 0   
     length 7.68497   
     axis 0 0 -20   XYZ
    dof rx
    limits (-10.0 170.0)
 end
 begin
     id 9 
     name rfoot
     direction -0.0969806 -0.266452 0.958957   
     length 2.01398  
     axis -90 -7.62852e-016 -20   XYZ
    dof rx rz
    limits (-45.0 90.0)
           (-20.0 70.0)
  end
  begin
     id 10 
     name rtoes
     direction -1.53552e-011 -4.21869e-011 1   
     length 1.00896   
     axis -90 -7.62852e-016 -20   XYZ
    dof rx
    limits (-90.0 20.0)
  end
  begin
     id 11 
     name lowerback
     direction 0.0305179 0.993923 -0.10576   
     length 2.09077   
     axis 0 0 0   XYZ
    dof rx ry rz
    limits (-20.0 45.0)
           (-30.0 30.0)
           (-30.0 30.0)
  end
  begin
     id 12 
     name upperback
     direction -0.0137909 0.999867 0.00873764   
     length 2.08918   
     axis 0 0 0   XYZ
    dof rx ry rz
    limits (-20.0 45.0)
           (-30.0 30.0)
           (-30.0 30.0)
  end
  begin
     id 13 
     name thorax
     direction -0.0278536 0.997917 0.0581839   
     length 2.11939   
     axis 0 0 0   XYZ
    dof rx ry rz
    limits (-20.0 45.0)
           (-30.0 30.0)
           (-30.0 30.0)
  end
  begin
     id 14 
     name lowerneck
     direction 0.0138689 0.999837 -0.0116016   
     length 1.74353   
     axis 0 0 0   XYZ
    dof rx ry rz
    limits (-20.0 45.0)
           (-30.0 30.0)
           (-30.0 30.0)
  end
  begin
     id 15 
     name upperneck
     direction -0.00992078 0.999667 0.0238149   
     length 1.71734   
     axis 0 0 0   XYZ
    dof rx ry rz
    limits (-20.0 45.0)
           (-30.0 30.0)
           (-30.0 30.0)
  end
  begin
     id 16
     name head
     direction -0.00530555 0.999941 0.00944937  
     length 1.78249  
     axis 0 0 0   XYZ
    dof rx ry rz
    limits (-20.0 45.0)
           (-30.0 30.0)
           (-30.0 30.0)
  end
  begin
     id 17 
     name lclavicle
     direction 0.929165 0.366864 0.0454227  
     length 3.65686  
     axis 0 0 0   XYZ
    dof ry rz
    limits (-20.0 10.0)
           (0.0 20.0)
  end
  begin
     id 18 
     name lhumerus
     direction 1 -4.4897e-011 3.05413e-018   
     length 5.15218   
     axis -180 -30 -90   XYZ
    dof rx ry rz
    limits (-60.0 90.0)
           (-90.0 90.0)
           (-90.0 90.0)
  end
  begin
     id 19
     name lradius
     direction 1 -4.48963e-011 5.40022e-027   
     length 3.49459   
     axis -180 -30 -90   XYZ
    dof rx
    limits (-10.0 170.0)
  end
  begin
     id 20
     name lwrist
     direction 1 -4.48966e-011 9.79369e-027   
     length 1.7473   
     axis -4.67603e-015 90 90   XYZ
    dof ry
    limits (-180.0 0.0)
 end
  begin
     id 21 
     name lhand
     direction 1 -4.48996e-011 1.9593e-026   
     length 0.512466   
     axis -1.24987e-014 90 90   XYZ
    dof rx rz
    limits (-90.0 90.0)
           (-45.0 45.0)
  end
  begin
     id 22 
     name lfingers
     direction 1 -4.48931e-011 3.91616e-026   
     length 0.413163   
     axis -2.49979e-014 90 90   XYZ
    dof rx
    limits (0.0 90.0)
  end
  begin
     id 23
     name lthumb
     direction 0.707107 -6.34959e-011 0.707107   
     length 0.593222   
     axis -90 45 5.69224e-014   XYZ
    dof rx rz
    limits (-45.0 45.0)
           (-45.0 45.0)
  end
  begin
     id 24 
     name rclavicle
     direction -0.951469 0.307727 0.00346571   
     length 3.42864  
     axis 0 0 0   XYZ 
    dof ry rz
    limits (-10.0 20.0)
           (-20.0 0.0)
  end
  begin
     id 25 
     name rhumerus
     direction -1 -4.48967e-011 2.58643e-027  
     length 5.44344   
     axis -180 30 90   XYZ
    dof rx ry rz
    limits (-90.0 60.0)
           (-90.0 90.0)
           (-90.0 90.0)
  end
  begin
     id 26 
     name rradius
     direction -1 -4.48973e-011 4.26485e-028   
     length 3.58403   
     axis -180 30 90   XYZ
    dof rx
    limits (-10.0 170.0)
  end
  begin
     id 27 
     name rwrist
     direction -1 -4.48962e-011 9.79331e-027   
     length 1.79202   
     axis -4.67603e-015 -90 -90   XYZ
    dof ry
    limits (-180.0 0.0)
  end
  begin
     id 28
     name rhand
     direction -1 -4.48975e-011 1.95891e-026   
     length 0.34249   
     axis -1.24987e-014 -90 -90   XYZ
    dof rx rz
    limits (-90.0 90.0)
           (-45.0 45.0)
  end
  begin
     id 29
     name rfingers
     direction -1 -4.48893e-011 3.9147e-026   
     length 0.276124   
     axis -2.49979e-014 -90 -90   XYZ
    dof rx
    limits (0.0 90.0)
  end
  begin
     id 30
     name rthumb
     direction -0.707107 -6.34898e-011 0.707107   
     length 0.39646   
     axis -90 -45 -5.69224e-014   XYZ
    dof rx rz
    limits (-45.0 45.0)
           (-45.0 45.0)
  end
:hierarchy
  begin
    root lhipjoint rhipjoint lowerback
    lhipjoint lfemur
    lfemur ltibia
    ltibia lfoot
    lfoot ltoes
    rhipjoint rfemur
    rfemur rtibia
    rtibia rfoot
    rfoot rtoes
    lowerback upperback
    upperback thorax
    thorax lowerneck lclavicle rclavicle
    lowerneck upperneck
    upperneck head
    lclavicle lhumerus
    lhumerus lradius
    lradius lwrist
    lwrist lhand lthumb
    lhand lfingers
    rclavicle rhumerus
    rhumerus rradius
    rradius rwrist
    rwrist rhand rthumb
    rhand rfingers
  end

#!OML:ASF H:\charlestonDancing\Project 1\Capture day 1\Session 1\femaleDancer.ASF
:FULLY-SPECIFIED
:DEGREES
387
root -9.20109 17.744 -2.51825 0.500782 122.112 -358.035
lowerback 8.08964 4.50616 1.251
upperback -0.086389 6.10006 -0.830782
thorax -4.38765 2.99292 -2.26479
lowerneck 12.4784 15.6105 12.1829
upperneck -7.44199 22.0839 -8.17141
head -1.9576 11.11 -4.98781
rclavicle 3.28367e-014 -1.74931e-014
rhumerus -33.5838 3.16518 -84.3181
rradius 24.4215
rwrist 26.8867
rhand -16.4889 -32.6833
rfingers 7.12502
rthumb 9.72845 -62.4386
lclavicle 3.28367e-014 -1.74931e-014
lhumerus -38.478 -0.722945 83.6117
lradius 34.1134
lwrist -0.458187
lhand -23.4874 16.5572
lfingers 7.12502
lthumb 2.97237 46.5163
rfemur -26.5688 -4.05488 15.8369
rtibia 77.8746
rfoot 5.37132 -11.6354
rtoes -17.073
lfemur -7.99639 -6.6355 -30.0495
ltibia 31.0321
lfoot -10.2419 -11.8352
ltoes 1.97432
388
root -9.11134 17.7458 -2.54736 0.227547 125.054 -358.334
lowerback 8.27948 4.33121 1.02561
upperback -0.0218037 5.85106 -0.782245
thorax -4.4648 2.87456 -2.07721
lowerneck 12.2984 15.019 12.1666
upperneck -7.5752 21.29 -7.97005
head -2.07448 10.698 -4.94341
rclavicle 1.64035e-013 -1.03368e-014
rhumerus -33.9567 3.40896 -84.708
rradius 25.0422
rwrist 26.1408
rhand -16.6881 -32.8571
rfingers 7.12502
rthumb 9.53627 -62.6213
lclavicle 1.64035e-013 -1.03368e-014
lhumerus -38.3534 -2.57003 85.4128
lradius 35.6051
lwrist -0.485336
lhand -23.4265 15.8457
lfingers 7.12502
lthumb 3.03121 45.8039
rfemur -27.2816 -3.14023 15.6143
rtibia 76.825
rfoot 2.19641 -12.8484
rtoes -16.1696
lfemur -7.56026 -7.60601 -30.0787
ltibia 31.0584
lfoot -9.25787 -13.5052
ltoes 4.00721
389
root -9.0178 17.7457 -2.57921 0.329325 128.021 -358.17
lowerback 8.43745 4.07938 1.01145
upperback 0.0718243 5.52425 -0.619192
thorax -4.48551 2.71535 -1.87288
lowerneck 12.1252 14.4927 12.0903
upperneck -7.77569 20.5669 -7.87061
head -2.19855 10.3269 -4.91978
rclavicle 7.12395e-014 7.95139e-016
rhumerus -34.2 3.64131 -84.9887
rradius 25.6513
rwrist 25.6489
rhand -17.0456 -33.1651
rfingers 7.12502
rthumb 9.19137 -62.9447
lclavicle 7.12395e-014 7.95139e-016
lhumerus -38.2859 -4.1835 87.1002
lradius 37.0061
lwrist -0.511213
lhand -23.5476 15.4478
lfingers 7.12502
lthumb 2.91425 45.4077
rfemur -27.7639 -2.28851 15.6938
rtibia 75.3462
rfoot -0.326971 -13.8072
rtoes -14.2991
lfemur -7.12216 -8.60705 -29.8125
ltibia 31.0963
lfoot -8.11052 -15.082
ltoes 6.83502
390
root -8.91948 17.747 -2.61679 0.266278 131.084 -358.191
lowerback 8.51323 3.87896 1.03354
upperback 0.200783 5.26546 -0.566233
thorax -4.40542 2.59063 -1.80021
lowerneck 11.8954 13.8805 12.0853
upperneck -7.99521 19.7397 -7.72227
head -2.32743 9.89927 -4.88629
rclavicle -6.4692e-014 1.03368e-014
rhumerus -34.3357 3.39251 -85.1226
rradius 26.1231
rwrist 25.2947
rhand -17.6352 -33.703
rfingers 7.12502
rthumb 8.62241 -63.5069
lclavicle -6.4692e-014 1.03368e-014
lhumerus -38.0335 -5.8685 88.656
lradius 38.0276
lwrist -0.630734
lhand -23.9432 15.2279
lfingers 7.12502
lthumb 2.53226 45.1926
rfemur -28.1367 -1.61498 15.6076
rtibia 73.3856
rfoot -2.23712 -14.0163
rtoes -13.2924
lfemur -6.62452 -9.68713 -29.6686
ltibia 31.0873
lfoot -6.84819 -16.6165
ltoes 9.69233
391
root -8.82025 17.7422 -2.65754 -0.0153103 134.138 -358.641
lowerback 8.52396 3.7829 0.870744
upperback 0.247967 5.11892 -0.694698
thorax -4.36953 2.52233 -1.82431
lowerneck 11.7337 13.1594 12.285
upperneck -8.18037 18.8132 -7.51421
head -2.4532 9.41604 -4.86293
rclavicle -1.51201e-014 -4.37326e-015
rhumerus -34.5552 2.73716 -85.198
rradius 26.5033
rwrist 25.1936
rhand -19.3707 -34.7475
rfingers 7.12502
rthumb 6.94735 -64.6135
lclavicle -1.51201e-014 -4.37326e-015
lhumerus -37.6893 -7.50508 89.9673
lradius 38.6596
lwrist -0.919965
lhand -23.9932 14.7254
lfingers 7.12502
lthumb 2.48394 44.6907
rfemur -28.6381 -1.19047 15.1031
rtibia 71.011
rfoot -4.28696 -13.7472
rtoes -17.0283
lfemur -6.26009 -10.7787 -29.8236
ltibia 31.1279
lfoot -5.38083 -18.1344
ltoes 12.5336
392
root -8.71897 17.7596 -2.70282 0.188577 136.939 -358.534
lowerback 8.78862 3.56444 0.906949
upperback 0.106412 4.8349 -0.622485
thorax -4.67811 2.37517 -1.76284
lowerneck 11.5777 12.6874 12.12
upperneck -8.19836 18.1799 -7.11734
head -2.55059 9.08117 -4.72713
rclavicle 3.04638e-014 7.35503e-015
rhumerus -34.7958 2.25731 -85.1415
rradius 26.9255
rwrist 24.6368
rhand -22.2514 -35.4037
rfingers 7.12502
rthumb 4.16604 -65.3427
lclavicle 3.04638e-014 7.35503e-015
lhumerus -37.7632 -8.3337 90.9687
lradius 39.3331
lwrist -1.40797
lhand -23.8342 14.1252
lfingers 7.12502
lthumb 2.63749 44.0886
rfemur -28.921 -0.12789 15.1166
rtibia 68.0499
rfoot -5.67444 -12.3138
rtoes -18.2213
lfemur -5.95256 -11.7687 -29.515
ltibia 31.0774
lfoot -3.60028 -19.4227
ltoes 15.7806
393
root -8.61495 17.7733 -2.75005 0.591618 139.59 -358.074
lowerback 9.04638 3.20598 1.0185
upperback 0.0849247 4.38647 -0.305377
thorax -4.8763 2.15092 -1.46004
lowerneck 11.164 12.4802 11.6127
upperneck -8.14637 17.8109 -6.81643
head -2.57727 8.89213 -4.54673
rclavicle 2.68856e-014 -2.5842e-015
rhumerus -34.7966 2.94611 -85.4009
rradius 26.9865
rwrist 25.8278
rhand -22.5568 -36.8639
rfingers 7.12502
rthumb 3.87106 -66.8084
lclavicle 2.68856e-014 -2.5842e-015
lhumerus -37.9103 -8.66726 91.905
lradius 40.1474
lwrist -1.78834
lhand -24.0255 13.8974
lfingers 7.12502
lthumb 2.45273 43.863
rfemur -29.0393 0.867543 15.4215
rtibia 64.6243
rfoot -7.58934 -10.8264
rtoes -21.5415
lfemur -5.64679 -12.4443 -28.837
ltibia 30.9958
lfoot -1.7062 -20.7665
ltoes 18.085
394
root -8.51224 17.7901 -2.80606 0.605357 142.234 -358.166
lowerback 8.959 2.91283 0.804467
upperback 0.312969 3.98694 -0.120942
thorax -4.62813 1.967 -1.0857
lowerneck 10.6118 12.1904 11.5392
upperneck -8.22535 17.3487 -6.93044
head -2.55159 8.66609 -4.5334
rclavicle -6.89659e-014 -1.39149e-015
rhumerus -34.2693 3.28709 -85.368
rradius 26.9628
rwrist 26.1639
rhand -23.8984 -37.5569
rfingers 7.12502
rthumb 2.57548 -67.5211
lclavicle -6.89659e-014 -1.39149e-015
lhumerus -37.6498 -9.44044 92.8661
lradius 40.706
lwrist -1.71658
lhand -24.4533 14.0496
lfingers 7.12502
lthumb 2.03953 44.0196
rfemur -28.9695 1.74987 15.1793
rtibia 60.6576
rfoot -9.14839 -9.00743
rtoes -22.2044
lfemur -5.29767 -12.9705 -28.5989
ltibia 30.8787
lfoot 0.16862 -22.1182
ltoes 19.3426
395
root -8.40747 17.8073 -2.87012 0.523588 144.73 -358.358
lowerback 8.95049 2.77749 0.671887
upperback 0.445743 3.79745 -0.118003
thorax -4.49756 1.88 -0.980068
lowerneck 10.3688 11.7578 11.3517
upperneck -8.51031 16.7437 -6.74812
head -2.687 8.35351 -4.4572
rclavicle -8.30796e-014 -2.98177e-015
rhumerus -33.968 3.21183 -85.3805
rradius 26.909
rwrist 26.3471
rhand -23.9457 -36.9638
rfingers 7.12502
rthumb 2.52985 -66.9286
lclavicle -8.30796e-014 -2.98177e-015
lhumerus -37.299 -10.0068 93.4588
lradius 40.787
lwrist -2.10963
lhand -24.6919 14.2053
lfingers 7.12502
lthumb 1.80909 44.1773
rfemur -28.6986 2.58977 14.837
rtibia 56.2574
rfoot -10.3443 -7.38596
rtoes -22.6168
lfemur -4.84433 -13.4495 -28.4976
ltibia 30.6575
lfoot 2.14924 -23.0243
ltoes 20.9719
396
root -8.29939 17.8272 -2.93914 0.679269 147.084 -358.093
lowerback 9.15916 2.70586 0.947624
upperback 0.427634 3.73723 -0.0540061
thorax -4.62113 1.84431 -1.07229
lowerneck 10.0547 11.3165 11.3656
upperneck -8.51981 16.1486 -6.53747
head -2.71176 8.04536 -4.37774
rclavicle 2.58047e-014 -9.14409e-015
rhumerus -33.8873 2.80208 -85.3149
rradius 26.7914
rwrist 26.6187
rhand -22.6158 -35.5896
rfingers 7.12502
rthumb 3.81415 -65.5352
lclavicle 2.58047e-014 -9.14409e-015
lhumerus -37.1482 -9.87808 93.7139
lradius 40.8549
lwrist -2.98448
lhand -24.5415 14.3959
lfingers 7.12502
lthumb 1.95438 44.3666
rfemur -28.2156 3.58749 14.8559
rtibia 51.43
rfoot -11.149 -6.08638
rtoes -23.2864
lfemur -4.32015 -13.8488 -27.9623
ltibia 30.3161
lfoot 4.02849 -23.6362
ltoes 21.6379
397
root -8.19302 17.8755 -3.01613 0.910928 149.407 -357.76
lowerback 9.2458 2.52944 1.2401
upperback 0.449518 3.54569 0.127695
thorax -4.64502 1.74626 -1.02685
lowerneck 9.57403 11.0344 11.0089
upperneck -8.38573 15.7129 -6.15414
head -2.6938 7.82002 -4.18064
rclavicle 7.90666e-014 -6.85807e-015
rhumerus -33.6337 2.36065 -85.0631
rradius 26.5551
rwrist 27.3524
rhand -23.0222 -35.7903
rfingers 7.12502
rthumb 3.42162 -65.7426
lclavicle 7.90666e-014 -6.85807e-015
lhumerus -37.1706 -9.81908 94.0243
lradius 41.1704
lwrist -2.86761
lhand -24.533 15.0871
lfingers 7.12502
lthumb 1.96259 45.0578
rfemur -27.7353 4.3857 15.0555
rtibia 46.4541
rfoot -11.1197 -5.45034
rtoes -27.2501
lfemur -3.782 -14.3734 -27.3251
ltibia 29.8494
lfoot 5.80884 -24.1359
ltoes 22.193
398
root -8.08537 17.9081 -3.09807 1.01729 151.666 -357.682
lowerback 9.21121 2.32135 1.35856
upperback 0.502865 3.28995 0.258608
thorax -4.57714 1.62123 -0.921497
lowerneck 9.20297 10.7958 10.6622
upperneck -8.37396 15.3387 -5.90996
head -2.70919 7.6303 -4.03769
rclavicle -2.9327e-014 -2.68359e-015
rhumerus -33.3143 2.30791 -84.9268
rradius 26.2789
rwrist 27.9698
rhand -25.7155 -37.3964
rfingers 7.12502
rthumb 0.820486 -67.3745
lclavicle -2.9327e-014 -2.68359e-015
lhumerus -37.1843 -9.62098 94.2026
lradius 41.1995
lwrist -2.52607
lhand -24.7216 15.1283
lfingers 7.12502
lthumb 1.78047 45.1006
rfemur -27.181 5.56411 14.7998
rtibia 41.5332
rfoot -11.6142 -4.43139
rtoes -24.6374
lfemur -3.22005 -15.0109 -26.9323
ltibia 29.2956
lfoot 7.91924 -24.459
ltoes 25.0125
